<mxfile host="app.diagrams.net" agent="Mozilla/5.0 (Windows NT 10.0; Win64; x64) AppleWebKit/537.36 (KHTML, like Gecko) Chrome/128.0.0.0 Safari/537.36" version="24.7.17">
  <diagram name="UC_GR_3-30-300_simplified" id="Krvi3zgOJTbH_F1lKnKt">
    <mxGraphModel grid="1" page="1" gridSize="10" guides="1" tooltips="1" connect="1" arrows="1" fold="1" pageScale="1" pageWidth="3300" pageHeight="4681" math="0" shadow="0">
      <root>
        <mxCell id="k6mhYjpQpfvVJ8LvTSOb-0" />
        <mxCell id="k6mhYjpQpfvVJ8LvTSOb-1" parent="k6mhYjpQpfvVJ8LvTSOb-0" />
        <UserObject label="&lt;font color=&quot;#ff0000&quot;&gt;&lt;a href=&quot;https://docs.google.com/document/d/1ABKdiM5d2JuX-enuPZMrgIqE85hdRemT/edit&quot;&gt;UC_GR_30-300_simplified&lt;/a&gt;&lt;/font&gt;" link="https://docs.google.com/document/d/1ABKdiM5d2JuX-enuPZMrgIqE85hdRemT/edit" linkTarget="_blank" id="k6mhYjpQpfvVJ8LvTSOb-5">
          <mxCell style="swimlane;html=1;childLayout=stackLayout;resizeParent=1;resizeParentMax=0;horizontal=0;startSize=20;horizontalStack=0;whiteSpace=wrap;" vertex="1" parent="k6mhYjpQpfvVJ8LvTSOb-1">
            <mxGeometry x="490" y="-4160" width="1920" height="1450" as="geometry">
              <mxRectangle x="99" y="-2240" width="40" height="50" as="alternateBounds" />
            </mxGeometry>
          </mxCell>
        </UserObject>
        <mxCell id="k6mhYjpQpfvVJ8LvTSOb-54" value="&lt;div&gt;30% of tree canopy coverage per district&lt;br&gt;&lt;/div&gt;" style="swimlane;html=1;startSize=58;horizontal=0;whiteSpace=wrap;" vertex="1" parent="k6mhYjpQpfvVJ8LvTSOb-5">
          <mxGeometry x="20" width="1900" height="360" as="geometry" />
        </mxCell>
        <mxCell id="ciWnwU-5eP2VFK62MYWq-25" value="&lt;h6 style=&quot;line-height: 100%;&quot;&gt;&lt;span style=&quot;font-size: 8.04px; font-weight: 400;&quot;&gt;calculate the % of coverage of high vegetation in each district and check if the percentage is &amp;gt;30%. Assign the characteristics to the district polygons.&lt;/span&gt;&lt;br&gt;&lt;a style=&quot;font-weight: normal;&quot; href=&quot;https://usage.geocat.live/catalogue/srv/eng/catalog.search#/metadata/8309b176-983c-4460-8361-d55bd8829c9c&quot;&gt;Link to tool 30percent criterion&lt;/a&gt;&lt;/h6&gt;" style="points=[[0.25,0,0],[0.5,0,0],[0.75,0,0],[1,0.25,0],[1,0.5,0],[1,0.75,0],[0.75,1,0],[0.5,1,0],[0.25,1,0],[0,0.75,0],[0,0.5,0],[0,0.25,0]];shape=mxgraph.bpmn.task;whiteSpace=wrap;rectStyle=rounded;size=10;html=1;container=1;expand=0;collapsible=0;taskMarker=abstract;fillColor=#ff9b29;fontColor=#000000;strokeColor=#BD7000;" vertex="1" parent="k6mhYjpQpfvVJ8LvTSOb-54">
          <mxGeometry x="675" y="192" width="200" height="50" as="geometry" />
        </mxCell>
        <mxCell id="ciWnwU-5eP2VFK62MYWq-63" style="edgeStyle=orthogonalEdgeStyle;rounded=0;orthogonalLoop=1;jettySize=auto;html=1;dashed=1;" edge="1" parent="ciWnwU-5eP2VFK62MYWq-25" source="ciWnwU-5eP2VFK62MYWq-25">
          <mxGeometry relative="1" as="geometry">
            <mxPoint x="10.480000000000018" y="52" as="sourcePoint" />
            <mxPoint x="105.48000000000002" y="82" as="targetPoint" />
          </mxGeometry>
        </mxCell>
        <UserObject label="&lt;div style=&quot;&quot;&gt;&lt;div style=&quot;&quot;&gt;&lt;font face=&quot;Arial&quot;&gt;&lt;span style=&quot;font-size: 8px;&quot;&gt;districts&lt;/span&gt;&lt;/font&gt;&lt;/div&gt;&lt;div style=&quot;font-size: 8px;&quot;&gt;&lt;font face=&quot;Arial&quot; style=&quot;font-size: 8px;&quot;&gt;&amp;nbsp;&lt;a href=&quot;https://usage.geocat.live/catalogue/srv/ger/catalog.search#/metadata/4f18ca71-38e9-4d55-9064-bc5085a50608&quot;&gt;link to dataset metadata&lt;/a&gt;&lt;/font&gt;&lt;/div&gt;&lt;/div&gt;" id="ciWnwU-5eP2VFK62MYWq-26">
          <mxCell style="shape=mxgraph.bpmn.data;labelPosition=center;verticalLabelPosition=bottom;align=center;verticalAlign=top;size=10;html=1;" vertex="1" parent="k6mhYjpQpfvVJ8LvTSOb-54">
            <mxGeometry x="680" y="60" width="30" height="30" as="geometry" />
          </mxCell>
        </UserObject>
        <UserObject label="&lt;div style=&quot;line-height: 100%;&quot;&gt;&lt;div style=&quot;line-height: 100%;&quot;&gt;&lt;span style=&quot;font-family: Arial; font-size: 8px;&quot;&gt;classified district polygons - 30percent criterion&lt;/span&gt;&lt;br&gt;&lt;/div&gt;&lt;div style=&quot;font-size: 8px; line-height: 100%;&quot;&gt;&lt;font face=&quot;Arial&quot; style=&quot;font-size: 8px;&quot;&gt;&amp;nbsp;&lt;a href=&quot;https://usage.geocat.live/catalogue/srv/ita/catalog.search#/metadata/600de8b7-7683-4cb1-bc8d-ca1ac5c2145b&quot;&gt;link to dataset metadata&lt;/a&gt;&lt;/font&gt;&lt;/div&gt;&lt;/div&gt;" id="ciWnwU-5eP2VFK62MYWq-27">
          <mxCell style="shape=mxgraph.bpmn.data;labelPosition=center;verticalLabelPosition=bottom;align=center;verticalAlign=top;size=11;html=1;" vertex="1" parent="k6mhYjpQpfvVJ8LvTSOb-54">
            <mxGeometry x="770" y="280" width="30" height="30" as="geometry" />
          </mxCell>
        </UserObject>
        <mxCell id="EDfzUC_PJEwEIxlfBZfZ-8" style="edgeStyle=orthogonalEdgeStyle;rounded=0;orthogonalLoop=1;jettySize=auto;html=1;dashed=1;exitX=0.5;exitY=1;exitDx=0;exitDy=0;exitPerimeter=0;" edge="1" parent="k6mhYjpQpfvVJ8LvTSOb-54">
          <mxGeometry relative="1" as="geometry">
            <mxPoint x="720" y="190" as="targetPoint" />
            <mxPoint x="694" y="97" as="sourcePoint" />
            <Array as="points">
              <mxPoint x="694" y="160" />
              <mxPoint x="720" y="160" />
              <mxPoint x="720" y="190" />
            </Array>
          </mxGeometry>
        </mxCell>
        <mxCell id="EDfzUC_PJEwEIxlfBZfZ-40" style="edgeStyle=orthogonalEdgeStyle;rounded=0;orthogonalLoop=1;jettySize=auto;html=1;exitX=1;exitY=0.5;exitDx=0;exitDy=0;exitPerimeter=0;entryX=0.5;entryY=0;entryDx=0;entryDy=0;entryPerimeter=0;" edge="1" parent="k6mhYjpQpfvVJ8LvTSOb-54" target="2BGtZ8wRhE-_zH-Sex3D-2">
          <mxGeometry relative="1" as="geometry">
            <mxPoint x="875" y="220" as="sourcePoint" />
            <mxPoint x="1196" y="420" as="targetPoint" />
            <Array as="points">
              <mxPoint x="1196" y="220" />
            </Array>
          </mxGeometry>
        </mxCell>
        <UserObject label="&lt;div style=&quot;&quot;&gt;&lt;div style=&quot;&quot;&gt;&lt;font face=&quot;Arial&quot;&gt;&lt;span style=&quot;font-size: 8px;&quot;&gt;High-vegetation layer in surface&lt;/span&gt;&lt;/font&gt;&lt;/div&gt;&lt;div style=&quot;&quot;&gt;&lt;font face=&quot;Arial&quot;&gt;&lt;span style=&quot;font-size: 8px;&quot;&gt;material classification map&lt;/span&gt;&lt;/font&gt;&lt;/div&gt;&lt;div style=&quot;font-size: 8px;&quot;&gt;&lt;font style=&quot;font-size: 8px;&quot; face=&quot;Arial&quot;&gt;&amp;nbsp;&lt;a href=&quot;https://usage.geocat.live/catalogue/srv/ita/catalog.search#/metadata/e6991462-e031-4deb-a362-c5b55139316a&quot;&gt;link to dataset metadata&lt;/a&gt;&lt;/font&gt;&lt;/div&gt;&lt;/div&gt;" id="dOxthLvODvYjjFTFsH-o-2">
          <mxCell style="shape=mxgraph.bpmn.data;labelPosition=center;verticalLabelPosition=bottom;align=center;verticalAlign=top;size=10;html=1;" vertex="1" parent="k6mhYjpQpfvVJ8LvTSOb-54">
            <mxGeometry x="820" y="60" width="30" height="37" as="geometry" />
          </mxCell>
        </UserObject>
        <mxCell id="dOxthLvODvYjjFTFsH-o-4" style="edgeStyle=orthogonalEdgeStyle;rounded=0;orthogonalLoop=1;jettySize=auto;html=1;dashed=1;exitX=0.5;exitY=1;exitDx=0;exitDy=0;exitPerimeter=0;entryX=0.801;entryY=-0.056;entryDx=0;entryDy=0;entryPerimeter=0;" edge="1" parent="k6mhYjpQpfvVJ8LvTSOb-54" source="dOxthLvODvYjjFTFsH-o-2" target="ciWnwU-5eP2VFK62MYWq-25">
          <mxGeometry relative="1" as="geometry">
            <mxPoint x="1130" y="70" as="targetPoint" />
            <mxPoint x="885" y="-333" as="sourcePoint" />
            <Array as="points">
              <mxPoint x="835" y="67" />
            </Array>
          </mxGeometry>
        </mxCell>
        <mxCell id="k6mhYjpQpfvVJ8LvTSOb-8" value="" style="points=[[0.145,0.145,0],[0.5,0,0],[0.855,0.145,0],[1,0.5,0],[0.855,0.855,0],[0.5,1,0],[0.145,0.855,0],[0,0.5,0]];shape=mxgraph.bpmn.event;html=1;verticalLabelPosition=bottom;labelBackgroundColor=#ffffff;verticalAlign=top;align=center;perimeter=ellipsePerimeter;outlineConnect=0;aspect=fixed;outline=standard;symbol=general;" vertex="1" parent="k6mhYjpQpfvVJ8LvTSOb-54">
          <mxGeometry x="110" y="30" width="34" height="34" as="geometry" />
        </mxCell>
        <mxCell id="2BGtZ8wRhE-_zH-Sex3D-1" value="" style="edgeStyle=orthogonalEdgeStyle;rounded=0;orthogonalLoop=1;jettySize=auto;html=1;exitX=1;exitY=0.5;exitDx=0;exitDy=0;exitPerimeter=0;entryX=0.5;entryY=0;entryDx=0;entryDy=0;entryPerimeter=0;" edge="1" parent="k6mhYjpQpfvVJ8LvTSOb-54" source="k6mhYjpQpfvVJ8LvTSOb-8" target="2BGtZ8wRhE-_zH-Sex3D-0">
          <mxGeometry relative="1" as="geometry">
            <mxPoint x="610" y="-4288" as="targetPoint" />
            <Array as="points">
              <mxPoint x="245" y="47" />
            </Array>
            <mxPoint x="254" y="-4413" as="sourcePoint" />
          </mxGeometry>
        </mxCell>
        <mxCell id="2BGtZ8wRhE-_zH-Sex3D-0" value="" style="points=[[0.25,0.25,0],[0.5,0,0],[0.75,0.25,0],[1,0.5,0],[0.75,0.75,0],[0.5,1,0],[0.25,0.75,0],[0,0.5,0]];shape=mxgraph.bpmn.gateway2;html=1;verticalLabelPosition=bottom;labelBackgroundColor=#ffffff;verticalAlign=top;align=center;perimeter=rhombusPerimeter;outlineConnect=0;outline=none;symbol=none;gwType=parallel;" vertex="1" parent="k6mhYjpQpfvVJ8LvTSOb-54">
          <mxGeometry x="220" y="147" width="50" height="50" as="geometry" />
        </mxCell>
        <mxCell id="EDfzUC_PJEwEIxlfBZfZ-43" style="edgeStyle=orthogonalEdgeStyle;rounded=0;orthogonalLoop=1;jettySize=auto;html=1;entryX=0;entryY=0.75;entryDx=0;entryDy=0;entryPerimeter=0;fontStyle=1;exitX=0.5;exitY=1;exitDx=0;exitDy=0;exitPerimeter=0;" edge="1" parent="k6mhYjpQpfvVJ8LvTSOb-54" source="2BGtZ8wRhE-_zH-Sex3D-0" target="ciWnwU-5eP2VFK62MYWq-25">
          <mxGeometry relative="1" as="geometry">
            <mxPoint x="150" y="-530" as="sourcePoint" />
            <mxPoint x="510" y="-415" as="targetPoint" />
            <Array as="points">
              <mxPoint x="245" y="230" />
            </Array>
          </mxGeometry>
        </mxCell>
        <mxCell id="k6mhYjpQpfvVJ8LvTSOb-69" value="&lt;div&gt;300m to the next green or blue infrastructure&lt;br&gt;&lt;/div&gt;" style="swimlane;html=1;startSize=58;horizontal=0;whiteSpace=wrap;" vertex="1" parent="k6mhYjpQpfvVJ8LvTSOb-5">
          <mxGeometry x="20" y="360" width="1900" height="390" as="geometry" />
        </mxCell>
        <UserObject label="&lt;div style=&quot;line-height: 100%;&quot;&gt;&lt;div style=&quot;line-height: 100%;&quot;&gt;&lt;span style=&quot;background-color: initial; font-size: 8px;&quot;&gt;&lt;font face=&quot;Arial&quot;&gt;Boolean building addresses - 300m criterion&lt;/font&gt;&lt;/span&gt;&lt;/div&gt;&lt;div style=&quot;font-size: 8px; line-height: 100%;&quot;&gt;&lt;a style=&quot;font-family: Arial;&quot; href=&quot;data:page/id,Krvi3zgOJTbH_F1lKnKt&quot;&gt;link to dataset metadata&lt;/a&gt;&lt;br&gt;&lt;/div&gt;&lt;/div&gt;" id="ciWnwU-5eP2VFK62MYWq-67">
          <mxCell style="shape=mxgraph.bpmn.data;labelPosition=center;verticalLabelPosition=bottom;align=center;verticalAlign=top;size=14;html=1;" vertex="1" parent="k6mhYjpQpfvVJ8LvTSOb-69">
            <mxGeometry x="420" y="270" width="26.5" height="38" as="geometry" />
          </mxCell>
        </UserObject>
        <mxCell id="ciWnwU-5eP2VFK62MYWq-68" style="edgeStyle=orthogonalEdgeStyle;rounded=0;orthogonalLoop=1;jettySize=auto;html=1;entryX=0;entryY=0;entryDx=7.5;entryDy=0;entryPerimeter=0;dashed=1;exitX=0.537;exitY=1.022;exitDx=0;exitDy=0;exitPerimeter=0;" edge="1" parent="k6mhYjpQpfvVJ8LvTSOb-69" source="ciWnwU-5eP2VFK62MYWq-71" target="ciWnwU-5eP2VFK62MYWq-67">
          <mxGeometry relative="1" as="geometry" />
        </mxCell>
        <UserObject label="&lt;div style=&quot;&quot;&gt;&lt;div style=&quot;&quot;&gt;&lt;font face=&quot;Arial&quot;&gt;&lt;span style=&quot;font-size: 8px;&quot;&gt;road&amp;nbsp;&lt;/span&gt;&lt;/font&gt;&lt;span style=&quot;font-size: 8px; font-family: Arial; background-color: initial;&quot;&gt;network&lt;/span&gt;&lt;/div&gt;&lt;div style=&quot;font-size: 8px;&quot;&gt;&lt;font face=&quot;Arial&quot; style=&quot;font-size: 8px;&quot;&gt;&amp;nbsp;&lt;a href=&quot;https://usage.geocat.live/catalogue/srv/ger/catalog.search#/metadata/55c04ef2-2d4b-4b74-a4ec-08b03e2fd678&quot;&gt;link to dataset metadata&lt;/a&gt;&lt;/font&gt;&lt;/div&gt;&lt;/div&gt;" id="ciWnwU-5eP2VFK62MYWq-69">
          <mxCell style="shape=mxgraph.bpmn.data;labelPosition=center;verticalLabelPosition=bottom;align=center;verticalAlign=top;size=10;html=1;" vertex="1" parent="k6mhYjpQpfvVJ8LvTSOb-69">
            <mxGeometry x="390" y="17" width="30" height="37" as="geometry" />
          </mxCell>
        </UserObject>
        <UserObject label="&lt;div style=&quot;&quot;&gt;&lt;div style=&quot;&quot;&gt;&lt;font face=&quot;Arial&quot;&gt;&lt;span style=&quot;font-size: 8px;&quot;&gt;Land use map for &lt;br&gt;parks and water (public accessible areas)&lt;/span&gt;&lt;/font&gt;&lt;/div&gt;&lt;div style=&quot;font-size: 8px;&quot;&gt;&lt;font face=&quot;Arial&quot; style=&quot;font-size: 8px;&quot;&gt;&amp;nbsp;&lt;a href=&quot;https://usage.geocat.live/catalogue/srv/eng/catalog.search#/metadata/7c840141-dce0-4b54-9bd7-7f0127b8745c&quot;&gt;link to dataset metadata&lt;/a&gt;&lt;/font&gt;&lt;/div&gt;&lt;/div&gt;" id="ciWnwU-5eP2VFK62MYWq-70">
          <mxCell style="shape=mxgraph.bpmn.data;labelPosition=center;verticalLabelPosition=bottom;align=center;verticalAlign=top;size=10;html=1;" vertex="1" parent="k6mhYjpQpfvVJ8LvTSOb-69">
            <mxGeometry x="720" y="17" width="30" height="37" as="geometry" />
          </mxCell>
        </UserObject>
        <mxCell id="ciWnwU-5eP2VFK62MYWq-71" value="&lt;h6 style=&quot;line-height: 100%;&quot;&gt;&lt;font face=&quot;Arial&quot;&gt;&lt;span style=&quot;font-size: 8px;&quot;&gt;&lt;span style=&quot;font-weight: 400;&quot;&gt;calculate the distance between the address point and&amp;nbsp; all green/blue infrastructure. Is the distance &amp;lt;300m to any of the green/blue infrastructures?&lt;br&gt;&lt;/span&gt;&lt;a style=&quot;font-weight: normal;&quot; href=&quot;https://usage.geocat.live/catalogue/srv/eng/catalog.search#/metadata/0977038e-28c9-4354-89fe-1a9b52c7da3a&quot;&gt;Link to tool 300m criterion&lt;/a&gt;&lt;/span&gt;&lt;/font&gt;&lt;/h6&gt;" style="points=[[0.25,0,0],[0.5,0,0],[0.75,0,0],[1,0.25,0],[1,0.5,0],[1,0.75,0],[0.75,1,0],[0.5,1,0],[0.25,1,0],[0,0.75,0],[0,0.5,0],[0,0.25,0]];shape=mxgraph.bpmn.task;whiteSpace=wrap;rectStyle=rounded;size=10;html=1;container=1;expand=0;collapsible=0;taskMarker=abstract;fillColor=#ff9b29;fontColor=#000000;strokeColor=#BD7000;" vertex="1" parent="k6mhYjpQpfvVJ8LvTSOb-69">
          <mxGeometry x="320" y="140" width="200" height="50" as="geometry" />
        </mxCell>
        <mxCell id="ciWnwU-5eP2VFK62MYWq-73" style="edgeStyle=orthogonalEdgeStyle;rounded=0;orthogonalLoop=1;jettySize=auto;html=1;dashed=1;exitX=0.5;exitY=1;exitDx=0;exitDy=0;exitPerimeter=0;entryX=0.5;entryY=0;entryDx=0;entryDy=0;" edge="1" parent="k6mhYjpQpfvVJ8LvTSOb-69" source="ciWnwU-5eP2VFK62MYWq-70" target="2BGtZ8wRhE-_zH-Sex3D-16">
          <mxGeometry relative="1" as="geometry">
            <mxPoint x="540" y="150" as="targetPoint" />
            <mxPoint x="570" y="87" as="sourcePoint" />
            <Array as="points" />
          </mxGeometry>
        </mxCell>
        <mxCell id="EDfzUC_PJEwEIxlfBZfZ-9" style="edgeStyle=orthogonalEdgeStyle;rounded=0;orthogonalLoop=1;jettySize=auto;html=1;dashed=1;exitX=0.5;exitY=1;exitDx=0;exitDy=0;exitPerimeter=0;" edge="1" parent="k6mhYjpQpfvVJ8LvTSOb-69">
          <mxGeometry relative="1" as="geometry">
            <mxPoint x="404.63" y="140" as="targetPoint" />
            <mxPoint x="404.63" y="54" as="sourcePoint" />
            <Array as="points">
              <mxPoint x="404.63" y="140" />
            </Array>
          </mxGeometry>
        </mxCell>
        <UserObject label="&lt;div style=&quot;&quot;&gt;&lt;div style=&quot;&quot;&gt;&lt;font face=&quot;Arial&quot;&gt;&lt;span style=&quot;font-size: 8px;&quot;&gt;lookup table for street categories&lt;/span&gt;&lt;/font&gt;&lt;/div&gt;&lt;div style=&quot;font-size: 8px;&quot;&gt;&lt;font face=&quot;Arial&quot; style=&quot;font-size: 8px;&quot;&gt;&amp;nbsp;&lt;a href=&quot;https://usage.geocat.live/catalogue/srv/eng/catalog.search#/metadata/d676fe14-c4e5-4d43-80ca-d88facff75bf&quot;&gt;link to dataset metadata&lt;/a&gt;&lt;/font&gt;&lt;/div&gt;&lt;/div&gt;" id="ohB3-MtpdD-KZxNO_08L-0">
          <mxCell style="shape=mxgraph.bpmn.data;labelPosition=center;verticalLabelPosition=bottom;align=center;verticalAlign=top;size=10;html=1;" vertex="1" parent="k6mhYjpQpfvVJ8LvTSOb-69">
            <mxGeometry x="530" y="20" width="30" height="37" as="geometry" />
          </mxCell>
        </UserObject>
        <mxCell id="ohB3-MtpdD-KZxNO_08L-1" style="edgeStyle=orthogonalEdgeStyle;rounded=0;orthogonalLoop=1;jettySize=auto;html=1;dashed=1;entryX=0.676;entryY=-0.056;entryDx=0;entryDy=0;entryPerimeter=0;" edge="1" parent="k6mhYjpQpfvVJ8LvTSOb-69" source="ohB3-MtpdD-KZxNO_08L-0" target="ciWnwU-5eP2VFK62MYWq-71">
          <mxGeometry relative="1" as="geometry">
            <mxPoint x="415" y="150" as="targetPoint" />
            <mxPoint x="415" y="64" as="sourcePoint" />
            <Array as="points">
              <mxPoint x="545" y="100" />
              <mxPoint x="455" y="100" />
            </Array>
          </mxGeometry>
        </mxCell>
        <mxCell id="2BGtZ8wRhE-_zH-Sex3D-2" value="" style="points=[[0.25,0.25,0],[0.5,0,0],[0.75,0.25,0],[1,0.5,0],[0.75,0.75,0],[0.5,1,0],[0.25,0.75,0],[0,0.5,0]];shape=mxgraph.bpmn.gateway2;html=1;verticalLabelPosition=bottom;labelBackgroundColor=#ffffff;verticalAlign=top;align=center;perimeter=rhombusPerimeter;outlineConnect=0;outline=none;symbol=none;gwType=parallel;" vertex="1" parent="k6mhYjpQpfvVJ8LvTSOb-69">
          <mxGeometry x="1170" y="140" width="50" height="50" as="geometry" />
        </mxCell>
        <mxCell id="EDfzUC_PJEwEIxlfBZfZ-41" style="edgeStyle=orthogonalEdgeStyle;rounded=0;orthogonalLoop=1;jettySize=auto;html=1;exitX=1;exitY=0.5;exitDx=0;exitDy=0;exitPerimeter=0;entryX=0;entryY=0.5;entryDx=0;entryDy=0;entryPerimeter=0;" edge="1" parent="k6mhYjpQpfvVJ8LvTSOb-69" source="ciWnwU-5eP2VFK62MYWq-71" target="2BGtZ8wRhE-_zH-Sex3D-2">
          <mxGeometry relative="1" as="geometry">
            <mxPoint x="885" y="-130" as="sourcePoint" />
            <mxPoint x="1100" y="220" as="targetPoint" />
            <Array as="points">
              <mxPoint x="1110" y="165" />
              <mxPoint x="1110" y="165" />
            </Array>
          </mxGeometry>
        </mxCell>
        <mxCell id="J6cz81nIuZAEn4z9d9Id-0" value="" style="edgeStyle=orthogonalEdgeStyle;rounded=0;orthogonalLoop=1;jettySize=auto;html=1;" edge="1" parent="k6mhYjpQpfvVJ8LvTSOb-69" source="2BGtZ8wRhE-_zH-Sex3D-16" target="ciWnwU-5eP2VFK62MYWq-70">
          <mxGeometry relative="1" as="geometry" />
        </mxCell>
        <mxCell id="2BGtZ8wRhE-_zH-Sex3D-16" value="&lt;div style=&quot;&quot;&gt;&lt;span style=&quot;font-family: Arial; font-size: 8px; text-wrap: nowrap;&quot;&gt;Categories to use:&lt;/span&gt;&lt;br style=&quot;font-family: Arial; font-size: 8px; text-wrap: nowrap;&quot;&gt;&lt;span style=&quot;font-family: Arial; font-size: 8px; text-wrap: nowrap;&quot;&gt;Parkanlage, Erholungsfläche,&lt;/span&gt;&lt;br style=&quot;font-family: Arial; font-size: 8px; text-wrap: nowrap;&quot;&gt;&lt;span style=&quot;font-family: Arial; font-size: 8px; text-wrap: nowrap;&quot;&gt;Sportanlagen,Waldfläche,&lt;/span&gt;&lt;br&gt;&lt;/div&gt;" style="text;html=1;strokeColor=none;fillColor=#d5e8d4;align=center;verticalAlign=middle;rounded=0;whiteSpace=wrap;spacing=2;fontSize=6;labelBackgroundColor=none;" vertex="1" parent="k6mhYjpQpfvVJ8LvTSOb-69">
          <mxGeometry x="655" y="120" width="160" height="40" as="geometry" />
        </mxCell>
        <mxCell id="2BGtZ8wRhE-_zH-Sex3D-17" style="edgeStyle=orthogonalEdgeStyle;rounded=0;orthogonalLoop=1;jettySize=auto;html=1;dashed=1;exitX=0;exitY=0.5;exitDx=0;exitDy=0;entryX=1.008;entryY=0.354;entryDx=0;entryDy=0;entryPerimeter=0;" edge="1" parent="k6mhYjpQpfvVJ8LvTSOb-69" source="2BGtZ8wRhE-_zH-Sex3D-16" target="ciWnwU-5eP2VFK62MYWq-71">
          <mxGeometry relative="1" as="geometry">
            <mxPoint x="745" y="120" as="targetPoint" />
            <mxPoint x="745" y="64" as="sourcePoint" />
            <Array as="points">
              <mxPoint x="630" y="140" />
              <mxPoint x="630" y="158" />
            </Array>
          </mxGeometry>
        </mxCell>
        <UserObject label="&lt;div style=&quot;&quot;&gt;&lt;div style=&quot;&quot;&gt;&lt;span style=&quot;font-size: 8px; font-family: Arial; background-color: initial;&quot;&gt;building addresses&lt;/span&gt;&lt;/div&gt;&lt;div style=&quot;&quot;&gt;&lt;a href=&quot;https://usage.geocat.live/catalogue/srv/eng/catalog.search#/metadata/4172fe27-ccd7-4ee6-a6ab-5484fdbc410e&quot; style=&quot;font-family: Arial; font-size: 8px;&quot;&gt;link to dataset metadata&lt;/a&gt;&lt;br&gt;&lt;/div&gt;&lt;/div&gt;" id="_oBTCkG9xDfK_S-0Bzab-0">
          <mxCell style="shape=mxgraph.bpmn.data;labelPosition=center;verticalLabelPosition=bottom;align=center;verticalAlign=top;size=10;html=1;" vertex="1" parent="k6mhYjpQpfvVJ8LvTSOb-69">
            <mxGeometry x="270" y="17" width="30" height="37" as="geometry" />
          </mxCell>
        </UserObject>
        <mxCell id="_oBTCkG9xDfK_S-0Bzab-1" style="edgeStyle=orthogonalEdgeStyle;rounded=0;orthogonalLoop=1;jettySize=auto;html=1;dashed=1;entryX=0.25;entryY=0;entryDx=0;entryDy=0;entryPerimeter=0;" edge="1" parent="k6mhYjpQpfvVJ8LvTSOb-69" source="_oBTCkG9xDfK_S-0Bzab-0" target="ciWnwU-5eP2VFK62MYWq-71">
          <mxGeometry relative="1" as="geometry">
            <mxPoint x="369.63" y="126" as="targetPoint" />
            <mxPoint x="240" y="30" as="sourcePoint" />
            <Array as="points">
              <mxPoint x="285" y="100" />
              <mxPoint x="370" y="100" />
            </Array>
          </mxGeometry>
        </mxCell>
        <mxCell id="k6mhYjpQpfvVJ8LvTSOb-76" value="&lt;div&gt;commbine all criteria&lt;/div&gt;" style="swimlane;html=1;startSize=58;horizontal=0;whiteSpace=wrap;" vertex="1" parent="k6mhYjpQpfvVJ8LvTSOb-5">
          <mxGeometry x="20" y="750" width="1900" height="360" as="geometry" />
        </mxCell>
        <mxCell id="EDfzUC_PJEwEIxlfBZfZ-16" value="" style="edgeStyle=orthogonalEdgeStyle;rounded=0;orthogonalLoop=1;jettySize=auto;html=1;dashed=1;" edge="1" parent="k6mhYjpQpfvVJ8LvTSOb-76" source="AlwzMYm-ZSlX3xYWYxc7-0" target="EDfzUC_PJEwEIxlfBZfZ-11">
          <mxGeometry relative="1" as="geometry" />
        </mxCell>
        <mxCell id="AlwzMYm-ZSlX3xYWYxc7-0" value="&lt;div style=&quot;line-height: 70%;&quot;&gt;&lt;div&gt;&lt;span style=&quot;background-color: initial; font-size: 8px; font-family: Arial;&quot;&gt;merge the two output criteria.&amp;nbsp;&lt;br&gt;If there&amp;nbsp;is a public green infrastructure reachable in 300m and&lt;br&gt;if the building is within a district that has enough tree canopy&lt;br&gt;--&amp;gt; the building should get a color depending on how many of the criterias are matched&lt;/span&gt;&lt;/div&gt;&lt;div style=&quot;font-size: 8px; text-wrap: nowrap; line-height: 8px;&quot;&gt;&lt;font face=&quot;Arial&quot;&gt;&amp;nbsp;30-300 Classification&lt;/font&gt;&lt;/div&gt;&lt;div style=&quot;font-size: 8px; text-wrap: nowrap; line-height: 8px;&quot;&gt;&lt;span style=&quot;font-family: Arial;&quot;&gt;&amp;nbsp;&lt;/span&gt;&lt;a href=&quot;https://usage.geocat.live/catalogue/srv/eng/catalog.search#/metadata/8ed3c1f3-8827-45d3-b63a-7fb903c31932&quot; style=&quot;font-family: Arial;&quot;&gt;link to tool metadata&lt;/a&gt;&lt;br&gt;&lt;/div&gt;&lt;/div&gt;" style="points=[[0.25,0,0],[0.5,0,0],[0.75,0,0],[1,0.25,0],[1,0.5,0],[1,0.75,0],[0.75,1,0],[0.5,1,0],[0.25,1,0],[0,0.75,0],[0,0.5,0],[0,0.25,0]];shape=mxgraph.bpmn.task;whiteSpace=wrap;rectStyle=rounded;size=10;html=1;container=1;expand=0;collapsible=0;taskMarker=abstract;fillColor=#ff9b29;strokeColor=#d79b00;gradientColor=none;" vertex="1" parent="k6mhYjpQpfvVJ8LvTSOb-76">
          <mxGeometry x="1120" y="80" width="277" height="83.5" as="geometry" />
        </mxCell>
        <UserObject label="&lt;div style=&quot;line-height: 100%; font-size: 8px;&quot;&gt;&lt;p style=&quot;line-height: 100%;&quot;&gt;&lt;br&gt;&lt;/p&gt;&lt;/div&gt;" id="EDfzUC_PJEwEIxlfBZfZ-11">
          <mxCell style="shape=mxgraph.bpmn.data;labelPosition=center;verticalLabelPosition=bottom;align=center;verticalAlign=top;size=14;html=1;" vertex="1" parent="k6mhYjpQpfvVJ8LvTSOb-76">
            <mxGeometry x="1246" y="210" width="26.5" height="38" as="geometry" />
          </mxCell>
        </UserObject>
        <mxCell id="EDfzUC_PJEwEIxlfBZfZ-42" style="edgeStyle=orthogonalEdgeStyle;rounded=0;orthogonalLoop=1;jettySize=auto;html=1;exitX=1;exitY=0.5;exitDx=0;exitDy=0;exitPerimeter=0;entryX=0.193;entryY=-0.05;entryDx=0;entryDy=0;entryPerimeter=0;" edge="1" parent="k6mhYjpQpfvVJ8LvTSOb-76" source="AlwzMYm-ZSlX3xYWYxc7-0">
          <mxGeometry relative="1" as="geometry">
            <mxPoint x="960" y="160" as="sourcePoint" />
            <mxPoint x="1613" y="441" as="targetPoint" />
            <Array as="points">
              <mxPoint x="1613" y="122" />
            </Array>
          </mxGeometry>
        </mxCell>
        <mxCell id="jfC9qIPKVj4M2YtGPrOQ-0" value="&lt;font style=&quot;font-size: 8px;&quot;&gt;building addresses with 30-300 classification&lt;/font&gt;&lt;div&gt;&lt;span style=&quot;font-size: 8px; text-wrap: nowrap; font-family: Arial;&quot;&gt;&amp;nbsp;&lt;/span&gt;&lt;a href=&quot;https://usage.geocat.live/catalogue/srv/eng/catalog.search#/metadata/7979b126-04cc-4d5d-a4f9-1227b5fef807&quot; style=&quot;font-size: 8px; text-wrap: nowrap; font-family: Arial;&quot;&gt;link to dataset metadata&lt;/a&gt;&lt;/div&gt;" style="text;whiteSpace=wrap;html=1;align=center;" vertex="1" parent="k6mhYjpQpfvVJ8LvTSOb-76">
          <mxGeometry x="1230" y="260" width="180" height="40" as="geometry" />
        </mxCell>
        <mxCell id="jfC9qIPKVj4M2YtGPrOQ-1" value="DP: At current stage, this data is the DRI" style="rounded=0;whiteSpace=wrap;html=1;fillColor=#f8cecc;strokeColor=#b85450;" vertex="1" parent="k6mhYjpQpfvVJ8LvTSOb-76">
          <mxGeometry x="1460" y="250" width="120" height="60" as="geometry" />
        </mxCell>
        <mxCell id="ciWnwU-5eP2VFK62MYWq-76" style="edgeStyle=orthogonalEdgeStyle;rounded=0;orthogonalLoop=1;jettySize=auto;html=1;entryX=0;entryY=0.5;entryDx=0;entryDy=0;entryPerimeter=0;dashed=1;" edge="1" parent="k6mhYjpQpfvVJ8LvTSOb-5" target="AlwzMYm-ZSlX3xYWYxc7-0">
          <mxGeometry relative="1" as="geometry">
            <mxPoint x="453" y="670" as="sourcePoint" />
            <mxPoint x="471" y="1075" as="targetPoint" />
            <Array as="points">
              <mxPoint x="453" y="872" />
            </Array>
          </mxGeometry>
        </mxCell>
        <mxCell id="ciWnwU-5eP2VFK62MYWq-75" style="edgeStyle=orthogonalEdgeStyle;rounded=0;orthogonalLoop=1;jettySize=auto;html=1;dashed=1;exitX=0;exitY=0;exitDx=30;exitDy=21.5;exitPerimeter=0;entryX=0.43;entryY=-0.016;entryDx=0;entryDy=0;entryPerimeter=0;" edge="1" parent="k6mhYjpQpfvVJ8LvTSOb-5" source="ciWnwU-5eP2VFK62MYWq-27" target="AlwzMYm-ZSlX3xYWYxc7-0">
          <mxGeometry relative="1" as="geometry">
            <mxPoint x="1260" y="1290" as="targetPoint" />
            <mxPoint x="460" y="464" as="sourcePoint" />
            <Array as="points">
              <mxPoint x="820" y="295" />
              <mxPoint x="1259" y="295" />
            </Array>
          </mxGeometry>
        </mxCell>
        <mxCell id="EDfzUC_PJEwEIxlfBZfZ-20" value="" style="edgeStyle=orthogonalEdgeStyle;rounded=0;orthogonalLoop=1;jettySize=auto;html=1;dashed=1;entryX=0.5;entryY=0;entryDx=0;entryDy=0;entryPerimeter=0;exitX=0.5;exitY=1;exitDx=0;exitDy=0;exitPerimeter=0;" edge="1" parent="k6mhYjpQpfvVJ8LvTSOb-5" source="EDfzUC_PJEwEIxlfBZfZ-11" target="EDfzUC_PJEwEIxlfBZfZ-18">
          <mxGeometry relative="1" as="geometry">
            <mxPoint x="1290" y="1000" as="sourcePoint" />
            <mxPoint x="1303" y="1440" as="targetPoint" />
            <Array as="points">
              <mxPoint x="1279" y="1000" />
              <mxPoint x="1280" y="1000" />
              <mxPoint x="1280" y="1010" />
              <mxPoint x="1340" y="1010" />
              <mxPoint x="1340" y="1140" />
              <mxPoint x="1555" y="1140" />
            </Array>
          </mxGeometry>
        </mxCell>
        <mxCell id="EDfzUC_PJEwEIxlfBZfZ-44" style="edgeStyle=orthogonalEdgeStyle;rounded=0;orthogonalLoop=1;jettySize=auto;html=1;exitX=0;exitY=0.5;exitDx=0;exitDy=0;exitPerimeter=0;entryX=0;entryY=0.5;entryDx=0;entryDy=0;entryPerimeter=0;" edge="1" parent="k6mhYjpQpfvVJ8LvTSOb-5" source="2BGtZ8wRhE-_zH-Sex3D-0" target="ciWnwU-5eP2VFK62MYWq-71">
          <mxGeometry relative="1" as="geometry">
            <mxPoint x="174" y="60" as="sourcePoint" />
            <mxPoint x="705" y="840" as="targetPoint" />
            <Array as="points">
              <mxPoint x="240" y="525" />
            </Array>
          </mxGeometry>
        </mxCell>
        <mxCell id="2BGtZ8wRhE-_zH-Sex3D-4" style="edgeStyle=orthogonalEdgeStyle;rounded=0;orthogonalLoop=1;jettySize=auto;html=1;entryX=0.274;entryY=-0.017;entryDx=0;entryDy=0;entryPerimeter=0;exitX=0.5;exitY=1;exitDx=0;exitDy=0;exitPerimeter=0;" edge="1" parent="k6mhYjpQpfvVJ8LvTSOb-5" source="2BGtZ8wRhE-_zH-Sex3D-2" target="AlwzMYm-ZSlX3xYWYxc7-0">
          <mxGeometry relative="1" as="geometry">
            <mxPoint x="457" y="1161" as="sourcePoint" />
            <mxPoint x="458" y="1240" as="targetPoint" />
          </mxGeometry>
        </mxCell>
        <mxCell id="EDfzUC_PJEwEIxlfBZfZ-30" value="&lt;div&gt;presentation of output&lt;/div&gt;" style="swimlane;html=1;startSize=58;horizontal=0;whiteSpace=wrap;" vertex="1" parent="k6mhYjpQpfvVJ8LvTSOb-5">
          <mxGeometry x="20" y="1110" width="1900" height="340" as="geometry" />
        </mxCell>
        <mxCell id="EDfzUC_PJEwEIxlfBZfZ-26" value="" style="edgeStyle=orthogonalEdgeStyle;rounded=0;orthogonalLoop=1;jettySize=auto;html=1;" edge="1" parent="EDfzUC_PJEwEIxlfBZfZ-30" source="EDfzUC_PJEwEIxlfBZfZ-18">
          <mxGeometry relative="1" as="geometry">
            <mxPoint x="1787.0000833335653" y="121.80000000000018" as="targetPoint" />
          </mxGeometry>
        </mxCell>
        <mxCell id="EDfzUC_PJEwEIxlfBZfZ-18" value="&lt;div style=&quot;line-height: 70%;&quot;&gt;&lt;div&gt;&lt;span style=&quot;background-color: initial; font-size: 8px; font-family: Arial;&quot;&gt;To be defined&lt;/span&gt;&lt;/div&gt;&lt;/div&gt;" style="points=[[0.25,0,0],[0.5,0,0],[0.75,0,0],[1,0.25,0],[1,0.5,0],[1,0.75,0],[0.75,1,0],[0.5,1,0],[0.25,1,0],[0,0.75,0],[0,0.5,0],[0,0.25,0]];shape=mxgraph.bpmn.task;whiteSpace=wrap;rectStyle=rounded;size=10;html=1;container=1;expand=0;collapsible=0;taskMarker=abstract;fillColor=#ff9b29;strokeColor=#d79b00;gradientColor=none;" vertex="1" parent="EDfzUC_PJEwEIxlfBZfZ-30">
          <mxGeometry x="1397" y="80" width="277" height="83.5" as="geometry" />
        </mxCell>
        <mxCell id="k6mhYjpQpfvVJ8LvTSOb-79" value="" style="points=[[0.145,0.145,0],[0.5,0,0],[0.855,0.145,0],[1,0.5,0],[0.855,0.855,0],[0.5,1,0],[0.145,0.855,0],[0,0.5,0]];shape=mxgraph.bpmn.event;html=1;verticalLabelPosition=bottom;labelBackgroundColor=#ffffff;verticalAlign=top;align=center;perimeter=ellipsePerimeter;outlineConnect=0;aspect=fixed;outline=end;symbol=terminate2;" vertex="1" parent="EDfzUC_PJEwEIxlfBZfZ-30">
          <mxGeometry x="1790" y="106.75" width="30" height="30" as="geometry" />
        </mxCell>
        <mxCell id="_nG-qKBbHBh6x25qRmug-0" value="" style="edgeStyle=orthogonalEdgeStyle;rounded=0;orthogonalLoop=1;jettySize=auto;html=1;" edge="1" parent="k6mhYjpQpfvVJ8LvTSOb-5" source="ciWnwU-5eP2VFK62MYWq-27" target="ciWnwU-5eP2VFK62MYWq-70">
          <mxGeometry relative="1" as="geometry" />
        </mxCell>
        <mxCell id="_nG-qKBbHBh6x25qRmug-1" value="" style="edgeStyle=orthogonalEdgeStyle;rounded=0;orthogonalLoop=1;jettySize=auto;html=1;" edge="1" parent="k6mhYjpQpfvVJ8LvTSOb-5" source="ciWnwU-5eP2VFK62MYWq-27" target="ciWnwU-5eP2VFK62MYWq-70">
          <mxGeometry relative="1" as="geometry" />
        </mxCell>
      </root>
    </mxGraphModel>
  </diagram>
</mxfile>
